<svg xmlns="http://www.w3.org/2000/svg" xmlns:xlink="http://www.w3.org/1999/xlink" width="1920.80688" height="605.48691" viewBox="0 0 1920.80688 605.48691"><defs><clipPath id="clip-path" transform="translate(-0.193 -0.00012)"><path d="M.41,421.366v25.931C584.498,605.487,1365.38306,599.858,1920,391.961V19.575L.41,19.54395Z" style="fill:none"/></clipPath><linearGradient id="未命名漸層_4" y1="1079.9876" x2="0.99963" y2="1079.9876" gradientTransform="matrix(1920.30383, 0, 0, -1920.30383, 0.2176, 2074216.84424)" gradientUnits="userSpaceOnUse"><stop offset="0" stop-color="#0069db"/><stop offset="1" stop-color="#00a2e8"/></linearGradient><clipPath id="clip-path-2" transform="translate(-0.193 -0.00012)"><rect width="1920" height="1080" style="fill:none"/></clipPath><clipPath id="clip-path-3" transform="translate(-0.193 -0.00012)"><rect x="0.19347" y="4.84998" width="1920.80653" height="510.31" style="fill:none"/></clipPath><clipPath id="clip-path-4" transform="translate(-0.193 -0.00012)"><path d="M1919.175,4.854H.566L.295,352.594l-.102,21.99C621.383,554.726,1316.485,570.757,1921,369.989" style="fill:none"/></clipPath><linearGradient id="未命名漸層_5" y1="1079.98553" x2="1" y2="1079.98553" gradientTransform="matrix(1920.80652, 0, 0, -1920.80652, 0.00046, 2074731.04675)" gradientUnits="userSpaceOnUse"><stop offset="0" stop-color="#00a1e8"/><stop offset="0.34177" stop-color="#009ee7"/><stop offset="0.57216" stop-color="#0095e5"/><stop offset="0.76967" stop-color="#0086e2"/><stop offset="0.94762" stop-color="#0071dd"/><stop offset="1" stop-color="#0069db"/></linearGradient><clipPath id="clip-path-5" transform="translate(-0.193 -0.00012)"><path d="M.566,0V34.787L.731,287.614C246.776,392.33,587.845,456.216,942.603,467.673c335.552,1.724,671.86-44.801,977.397-139.54395V0Z" style="fill:none"/></clipPath><linearGradient id="未命名漸層_6" x1="0.00026" y1="1079.99804" x2="1" y2="1079.99804" gradientTransform="translate(1920.30041 2073752.23792) rotate(180) scale(1919.92712)" gradientUnits="userSpaceOnUse"><stop offset="0" stop-color="#00a9e8"/><stop offset="0.32797" stop-color="#00a6e7"/><stop offset="0.54705" stop-color="#009de6"/><stop offset="0.73428" stop-color="#008ee3"/><stop offset="0.90269" stop-color="#0079de"/><stop offset="1" stop-color="#0069db"/></linearGradient></defs><title>資產 2</title><g id="圖層_2" data-name="圖層 2"><g id="圖層_1-2" data-name="圖層 1"><g style="clip-path:url(#clip-path)"><rect x="0.217" y="19.54382" width="1919.58988" height="585.94308" style="fill:url(#未命名漸層_4)"/></g><g style="clip-path:url(#clip-path-2)"><g style="opacity:0.6100010275840759"><g style="clip-path:url(#clip-path-3)"><g style="clip-path:url(#clip-path-4)"><rect y="4.85388" width="1920.80688" height="565.90302" style="fill:url(#未命名漸層_5)"/></g></g></g></g><g style="clip-path:url(#clip-path-5)"><rect x="0.37298" width="1919.4339" height="469.39685" style="fill:url(#未命名漸層_6)"/></g></g></g></svg>