<svg id="圖層_1" data-name="圖層 1" xmlns="http://www.w3.org/2000/svg" width="25.42683" height="26.60144" viewBox="0 0 25.42683 26.60144"><title>eyes_open</title><path d="M12.79428,18.69373a13.14483,13.14483,0,0,1-8.40914-3.89759c-.38274-.34979-.73-.73858-1.0908-1.11215a.44081.44081,0,0,1,.00236-.68474c2.37337-2.52855,5.055-4.53173,8.63217-4.94179A9.35594,9.35594,0,0,1,17.238,9.15921a16.76738,16.76738,0,0,1,4.86873,3.75419c.21605.23587.3679.45882.09483.75486a14.83258,14.83258,0,0,1-7.66287,4.81518A14.14108,14.14108,0,0,1,12.79428,18.69373ZM3.99875,13.34184A14.91194,14.91194,0,0,0,10.61483,17.629a7.58806,7.58806,0,0,0,3.99171.05737,14.21648,14.21648,0,0,0,6.77695-4.2682c.01957-.02046.01931-.05988.04247-.13856a14.90723,14.90723,0,0,0-6.56407-4.219,7.71458,7.71458,0,0,0-4.08491-.038A14.71758,14.71758,0,0,0,3.99875,13.34184Z" style="fill:#4d4d4d"/><path d="M3.99875,13.34184A14.71758,14.71758,0,0,1,10.777,9.02262a7.71458,7.71458,0,0,1,4.08491.038,14.90723,14.90723,0,0,1,6.56407,4.219c-.02316.07869-.02291.1181-.04247.13856a14.21648,14.21648,0,0,1-6.77695,4.2682,7.58806,7.58806,0,0,1-3.99171-.05737A14.91194,14.91194,0,0,1,3.99875,13.34184Zm12.842-.09231a5.6496,5.6496,0,0,0-.07934-.62511,4.22026,4.22026,0,0,0-6.57711-2.2185,3.51869,3.51869,0,0,0,.07718,5.884,4.39426,4.39426,0,0,0,5.17948-.17221A3.56927,3.56927,0,0,0,16.84071,13.24953Z" style="fill:#fff"/><path d="M16.84071,13.24953a3.56927,3.56927,0,0,1-1.3998,2.86823,4.39426,4.39426,0,0,1-5.17948.17221,3.51869,3.51869,0,0,1-.07718-5.884,4.22026,4.22026,0,0,1,6.57711,2.2185A5.6496,5.6496,0,0,1,16.84071,13.24953ZM12.74534,14.5246a1.28814,1.28814,0,0,0,1.31774-1.22579,1.34129,1.34129,0,0,0-2.66991.03472A1.29634,1.29634,0,0,0,12.74534,14.5246Z" style="fill:#4e4d4d"/><path d="M12.74534,14.5246a1.29634,1.29634,0,0,1-1.35217-1.19107,1.34129,1.34129,0,0,1,2.66991-.03472A1.28814,1.28814,0,0,1,12.74534,14.5246Z" style="fill:#fff"/></svg>