<svg xmlns="http://www.w3.org/2000/svg" width="21.9543" height="23.9502" viewBox="0 0 21.9543 23.9502"><title>資產 1</title><g id="圖層_2" data-name="圖層 2"><g id="圖層_2-2" data-name="圖層 2"><path d="M19.4595,19.9585H7.4844a2.49767,2.49767,0,0,1-2.4948-2.4948V2.4948A2.49761,2.49761,0,0,1,7.4844,0h8.9893a3.51925,3.51925,0,0,1,2.4699,1.0228l1.9878,1.9879a3.47371,3.47371,0,0,1,1.0229,2.4709V17.4637A2.49767,2.49767,0,0,1,19.4595,19.9585ZM7.4844.9979A1.49872,1.49872,0,0,0,5.9875,2.4948V17.4637a1.49869,1.49869,0,0,0,1.4969,1.4968H19.4595a1.49869,1.49869,0,0,0,1.4969-1.4968V5.4816a2.48272,2.48272,0,0,0-.7305-1.7644L18.238,1.7294A2.50985,2.50985,0,0,0,16.4737.9979Z" style="fill:#344154"/><path d="M14.4699,23.9502H2.4948A2.49761,2.49761,0,0,1,0,21.4554V5.4886A2.49755,2.49755,0,0,1,2.4948,2.9938h.9979a.499.499,0,1,1,0,.9979H2.4948A1.49872,1.49872,0,0,0,.9979,5.4886V21.4554a1.49869,1.49869,0,0,0,1.4969,1.4968H14.4699a1.49869,1.49869,0,0,0,1.4969-1.4968.499.499,0,1,1,.9979,0A2.49767,2.49767,0,0,1,14.4699,23.9502Z" style="fill:#344154"/><path d="M17.4636,7.9834H9.4802a.499.499,0,0,1,0-.998h7.9834a.499.499,0,0,1,0,.998Z" style="fill:#344154"/><path d="M17.4636,11.9751H9.4802a.499.499,0,0,1,0-.998h7.9834a.499.499,0,0,1,0,.998Z" style="fill:#344154"/><path d="M17.4636,15.9668H9.4802a.499.499,0,0,1,0-.998h7.9834a.499.499,0,0,1,0,.998Z" style="fill:#344154"/></g></g></svg>