<svg xmlns="http://www.w3.org/2000/svg" width="29.9113" height="22.4797" viewBox="0 0 29.9113 22.4797"><title>資產 1</title><g id="圖層_2" data-name="圖層 2"><g id="圖層_1-2" data-name="圖層 1"><path d="M3.3957,22.4797H26.51552A3.39956,3.39956,0,0,0,29.9113,19.084V3.3957A3.39962,3.39962,0,0,0,26.51552,0H3.3957A3.3996,3.3996,0,0,0,0,3.3957V19.084A3.39954,3.39954,0,0,0,3.3957,22.4797Zm0-1.0115a2.36818,2.36818,0,0,1-1.4436-.4884l6.9143-7.0721a.50574.50574,0,1,0-.7234-.7069L1.2933,20.207a2.37279,2.37279,0,0,1-.28178-1.123V4.5106L12.7654,14.4632a3.38466,3.38466,0,0,0,4.3905-.0021L28.8998,4.5009V19.084a2.36938,2.36938,0,0,1-.2836,1.1266l-6.8908-7.0111a.50571.50571,0,0,0-.7214.7089l6.9522,7.0737a2.36946,2.36946,0,0,1-1.44068.4861Zm0-20.4568H26.51552A2.3874,2.3874,0,0,1,28.8898,3.1832L16.5018,13.6899a2.37651,2.37651,0,0,1-3.0828.0011L1.021,3.1929A2.3867,2.3867,0,0,1,3.3957,1.0114Z" style="fill:#344154"/></g></g></svg>