<svg xmlns="http://www.w3.org/2000/svg" width="28.99998" height="30.3277" viewBox="0 0 28.99998 30.3277"><title>資產 3</title><g id="圖層_2" data-name="圖層 2"><g id="圖層_1-2" data-name="圖層 1"><path d="M7.679,8.01669a2.03737,2.03737,0,0,0-1.209,2.066c0,1.134.618,2.032,1.425,2.106a7.76084,7.76084,0,0,0,2.658,4.175l-.207,1.792a.98856.98856,0,0,1-.429.704,1.0239,1.0239,0,0,1-.276.129l-4.513,1.31a4.2842,4.2842,0,0,0-1.77.926,5.21459,5.21459,0,0,0-1.793,2.996l-1.059,5.304a.24878.24878,0,0,0,.051.211.26.26,0,0,0,.197.092H28.5l-2.124-6.424a5.23332,5.23332,0,0,0-1.557-2.179,4.27769,4.27769,0,0,0-1.756-.921l-4.529-1.315a1.037,1.037,0,0,1-.276-.129.9874.9874,0,0,1-.428-.704l-.209-1.792a7.72605,7.72605,0,0,0,2.656-4.175c.809-.071,1.43-.971,1.43-2.106a2.02018,2.02018,0,0,0-1.249-2.078" style="fill:none;stroke:#344154;stroke-linecap:round;stroke-linejoin:round"/><path d="M20.45829,8.005S20.83329.5,14.08726.5s-6.408,7.517-6.408,7.517" style="fill:none;stroke:#344154;stroke-linecap:round;stroke-linejoin:round"/><path d="M8.15952,4.79205a2.40437,2.40437,0,0,1,1.339-1.15594,3.79661,3.79661,0,0,1,2.823.337,12.34957,12.34957,0,0,0,3.827,1.426,6.557,6.557,0,0,0,3.842-.626" style="fill:none;stroke:#344154;stroke-linecap:round;stroke-linejoin:round"/><line x1="9.91728" y1="18.85947" x2="14.08726" y2="23.18149" style="fill:none;stroke:#344154;stroke-linecap:round;stroke-linejoin:round"/><line x1="18.25663" y1="18.85947" x2="14.08762" y2="23.18149" style="fill:none;stroke:#344154;stroke-linecap:round;stroke-linejoin:round"/><polyline points="7.889 20.681 14.069 27.293 14.088 27.277 14.104 27.293 20.286 20.681" style="fill:none;stroke:#344154;stroke-linecap:round;stroke-linejoin:round"/></g></g></svg>