<svg id="圖層_1" data-name="圖層 1" xmlns="http://www.w3.org/2000/svg" width="30" height="30" viewBox="0 0 30 30"><title>未命名-2</title><path d="M14.87276,12.92321a2.07074,2.07074,0,0,0-1.88,1.96783,2.1139,2.1139,0,0,0,1.16022,2.04686L16.8658,14.225A2.00888,2.00888,0,0,0,14.87276,12.92321Z" style="fill:#97bae3"/><path d="M12.8578,18.233a3.97644,3.97644,0,0,1-1.58867-3.46,3.838,3.838,0,0,1,3.48721-3.6502A3.69147,3.69147,0,0,1,18.15679,12.934L20.071,11.01981A9.37269,9.37269,0,0,0,15,9.48234c-3.39638,0-6.47635,1.94495-8.74911,5.10418a.76431.76431,0,0,0,0,.8793,12.70145,12.70145,0,0,0,5.06056,4.31348Z" style="fill:#97bae3"/><path d="M10.55594,22.26041a.71475.71475,0,0,1-.50539-1.22019L21.741,9.34973a.71476.71476,0,1,1,1.01079,1.01087l-11.6905,11.6905A.7125.7125,0,0,1,10.55594,22.26041Z" style="fill:#97bae3"/><path d="M23.74914,14.59035a15.26145,15.26145,0,0,0-1.44737-1.7338l-7.70659,7.70659c.13452.00638.26928.01069.40484.01069,3.39638,0,6.47635-1.945,8.74911-5.10418A.76458.76458,0,0,0,23.74914,14.59035Z" style="fill:#97bae3"/></svg>