<svg xmlns="http://www.w3.org/2000/svg" width="46.99945" height="46.99945" viewBox="0 0 46.99945 46.99945"><g id="圖層_2" data-name="圖層 2"><g id="圖層_1-2" data-name="圖層 1"><circle cx="23.49972" cy="23.49972" r="23.49972" style="fill:#00a9e8"/><circle cx="23.02817" cy="13.88808" r="3.74579" style="fill:#fff"/><path d="M32.07886,24.51066A5.80737,5.80737,0,1,0,37.88623,30.318,5.80738,5.80738,0,0,0,32.07886,24.51066Zm0,7.55306A1.74569,1.74569,0,1,1,33.82455,30.318,1.7457,1.7457,0,0,1,32.07886,32.06372Z" style="fill:#fff"/><path d="M29.42323,19.50873l-3.30372-.988L23.92736,23.7696a1.15646,1.15646,0,0,1-1.85257.03086l-2.31568-5.27973-3.27282,1.04976.03042,7.0629,1.29177.88954,2.07416-1.28328,5.74287-.03086A7.70369,7.70369,0,0,1,29.485,22.65807Z" style="fill:#fff"/><path d="M27.12542,28.46l-6.89336-.02972-2.534,1.46933L17.6909,29.9l-2.037-1.26161-2.17977,1.28871c-.03964.00515-.08051.00863-.12268.0102l-1.919-1.12057L9.91631,30.27341l1.9026,1.81346H26.02912l.80268.7432,1.24859-3.29987Z" style="fill:#fff"/></g></g></svg>