<svg id="圖層_1" data-name="圖層 1" xmlns="http://www.w3.org/2000/svg" width="30" height="30" viewBox="0 0 30 30"><title>未命名-2</title><path d="M15,9.4387c-3.4058,0-6.4944,1.9505-8.7735,5.1186a.76634.76634,0,0,0,0,.8817c2.2791,3.1718,5.3677,5.1223,8.7735,5.1223s6.4945-1.9505,8.7736-5.1185a.76634.76634,0,0,0,0-.8817C21.49445,11.3892,18.40585,9.4387,15,9.4387Zm.2444,9.4775a3.84192,3.84192,0,0,1-3.9857-4.1719,3.84888,3.84888,0,0,1,3.497-3.6605,3.92791,3.92791,0,0,1,.4887,7.8324Zm-.1131-1.8092a2.115,2.115,0,1,1,1.8853-1.9734A2.06413,2.06413,0,0,1,15.13125,17.107Z" style="fill:#97bae3"/></svg>