<svg xmlns="http://www.w3.org/2000/svg" width="49.4731" height="49.4731" viewBox="0 0 49.4731 49.4731"><g id="圖層_2" data-name="圖層 2"><g id="圖層_1-2" data-name="圖層 1"><circle cx="24.73655" cy="24.73655" r="24.73655" style="fill:#00a9e8"/><path d="M18.70351,25.88527l-.17181.04351a1.28558,1.28558,0,0,0,0,.75429s.25052.21885.28331.20573a6.58173,6.58173,0,0,0-.06559-.81332Z" style="fill:#00a9e8"/><path d="M24.30041,25.76508h1.47484a4.21419,4.21419,0,0,0,4.2144-4.20445V16.61906a.7351.7351,0,0,0-.73593-.73421H28.525v-1.362a1.90978,1.90978,0,0,1,3.81954,0v.89829a.59239.59239,0,0,0,.63016.66156.64957.64957,0,0,0,.70387-.66156v-.89829a3.12945,3.12945,0,0,0-3.19449-3.259,3.2413,3.2413,0,0,0-3.32985,3.259v1.362H20.82194a.73507.73507,0,0,0-.73593.73421v4.94157A4.21419,4.21419,0,0,0,24.30041,25.76508Zm-2.8722-8.54121h7.21924v4.36418a2.84459,2.84459,0,0,1-2.84471,2.838H24.27292a2.84455,2.84455,0,0,1-2.84471-2.838Z" style="fill:#fff"/><path d="M25.0378,21.64942a.73507.73507,0,0,0,.73593-.73422v-.76094a.736.736,0,0,0-1.4719,0v.76094A.73508.73508,0,0,0,25.0378,21.64942Z" style="fill:#fff"/><path d="M36.83248,27.50459H13.24313a.73507.73507,0,0,0-.73593.73421v7.23736a.7351.7351,0,0,0,.73593.73421h23.5893a.73507.73507,0,0,0,.73593-.73421V28.2388A.735.735,0,0,0,36.83248,27.50459Zm-.50513,7.60488H13.81891v-6.472H36.32735Z" style="fill:#fff"/><path d="M31.66473,32.60949a.73576.73576,0,0,0,1.4652,0,.73367.73367,0,0,0,0-1.46168.73576.73576,0,0,0-1.4652,0,.73367.73367,0,0,0,0,1.46168Z" style="fill:#fff"/><path d="M26.75841,32.60949a.73576.73576,0,0,0,1.4652,0,.73367.73367,0,0,0,0-1.46168.73576.73576,0,0,0-1.4652,0,.73367.73367,0,0,0,0,1.46168Z" style="fill:#fff"/><path d="M21.852,32.60949a.73576.73576,0,0,0,1.4652,0,.73367.73367,0,0,0,0-1.46168.73576.73576,0,0,0-1.4652,0,.73367.73367,0,0,0,0,1.46168Z" style="fill:#fff"/><path d="M16.94573,32.60949a.73576.73576,0,0,0,1.4652,0,.73367.73367,0,0,0,0-1.46168.73576.73576,0,0,0-1.4652,0,.73367.73367,0,0,0,0,1.46168Z" style="fill:#fff"/></g></g></svg>