<?xml version="1.0" encoding="utf-8"?>
<!-- Generator: Adobe Illustrator 21.1.0, SVG Export Plug-In . SVG Version: 6.00 Build 0)  -->
<svg version="1.1" id="圖層_1" xmlns="http://www.w3.org/2000/svg" xmlns:xlink="http://www.w3.org/1999/xlink" x="0px" y="0px"
	 viewBox="0 0 512 512" style="enable-background:new 0 0 512 512;" xml:space="preserve">
<style type="text/css">
	.st0{fill:#FFFFFF;}
</style>
<title></title>
<g id="icomoon-ignore">
</g>
<path class="st0" d="M256,512c-68.4,0-132.7-26.6-181-75C26.6,388.7,0,324.4,0,256c0-48.4,13.6-95.6,39.3-136.3
	C64.3,80,99.6,48,141.5,27L163,69.9c-34,17-62.7,43.1-83.1,75.3C59,178.4,48,216.7,48,256c0,114.7,93.3,208,208,208
	s208-93.3,208-208c0-39.3-11-77.6-31.9-110.7C411.8,113,383,87,349,69.9L370.5,27c41.8,21,77.2,53,102.2,92.7
	C498.4,160.4,512,207.6,512,256c0,68.4-26.6,132.7-75,181C388.7,485.4,324.4,512,256,512L256,512z"/>
</svg>
