<svg xmlns="http://www.w3.org/2000/svg" width="16.34595" height="16.3249" viewBox="0 0 16.34595 16.3249"><title>資產 1</title><g id="圖層_2" data-name="圖層 2"><g id="圖層_1-2" data-name="圖層 1"><path d="M8.644,16.1999H7.701a.48876.48876,0,0,0-.104-.024,7.88367,7.88367,0,0,1-4.448-1.747,7.90286,7.90286,0,0,1-2.868-4.72c-.072-.358-.105-.724-.15594-1.086v-.944a.63149.63149,0,0,0,.025-.104,7.848,7.848,0,0,1,2.072-4.813,7.80461,7.80461,0,0,1,5.434-2.619A7.82189,7.82189,0,0,1,13.56,2.19589a7.84149,7.84149,0,0,1,2.512,4.429c.065.328.1.661.149.992v1.069a.87446.87446,0,0,0-.027.12,7.8477,7.8477,0,0,1-1.737,4.367,7.91709,7.91709,0,0,1-4.744,2.874c-.353.07-.712.102-1.069.153m6.624-8.045a7.091,7.091,0,1,0-7.097,7.086,7.103,7.103,0,0,0,7.097-7.086" style="fill:gray"/><path d="M8.644,16.1999H7.701a.48876.48876,0,0,0-.104-.024,7.88367,7.88367,0,0,1-4.448-1.747,7.90286,7.90286,0,0,1-2.868-4.72c-.072-.358-.105-.724-.15594-1.086v-.944a.63149.63149,0,0,0,.025-.104,7.848,7.848,0,0,1,2.072-4.813,7.80461,7.80461,0,0,1,5.434-2.619A7.82189,7.82189,0,0,1,13.56,2.19589a7.84149,7.84149,0,0,1,2.512,4.429c.065.328.1.661.149.992v1.069a.87446.87446,0,0,0-.027.12,7.8477,7.8477,0,0,1-1.737,4.367,7.91709,7.91709,0,0,1-4.744,2.874C9.36,16.11689,9.001,16.14889,8.644,16.1999Zm6.624-8.045a7.091,7.091,0,1,0-7.097,7.086A7.103,7.103,0,0,0,15.268,8.15489Z" style="fill:none;stroke:gray;stroke-miterlimit:10;stroke-width:0.25px"/><path d="M8.05273,8.525h.205q2.049,0,4.1.001a.46854.46854,0,0,1,.461.666.446.446,0,0,1-.433.283c-.319.003-.639.001-.95795.001h-3.755c-.393,0-.57-.173-.57-.561V3.304a.481.481,0,0,1,.648-.508.45671.45671,0,0,1,.302.467c.001.555,0,1.111,0,1.665V8.525Z" style="fill:gray"/><path d="M8.05273,8.525h.205q2.049,0,4.1.001a.46854.46854,0,0,1,.461.666.446.446,0,0,1-.433.283c-.319.003-.639.001-.95795.001h-3.755c-.393,0-.57-.173-.57-.561V3.304a.481.481,0,0,1,.648-.508.45671.45671,0,0,1,.302.467c.001.555,0,1.111,0,1.665V8.525Z" style="fill:none;stroke:gray;stroke-miterlimit:10;stroke-width:0.25px"/></g></g></svg>