<svg id="图层_1" data-name="图层 1" xmlns="http://www.w3.org/2000/svg" viewBox="0 0 536.19 195.4"><defs><style>.cls-1{fill:#fff;}.cls-2{fill:#0885c7;}.cls-3{fill:#06afe8;}.cls-4{fill:#e90a25;}</style></defs><title>LOGO</title><path class="cls-1" d="M75.38,192,12.61,155.78A25.23,25.23,0,0,1,0,133.94V61.46A25.22,25.22,0,0,1,12.61,39.62L75.38,3.38a25.2,25.2,0,0,1,25.22,0l62.77,36.24A25.22,25.22,0,0,1,176,61.46v72.48a25.23,25.23,0,0,1-12.61,21.84L100.6,192A25.24,25.24,0,0,1,75.38,192Z"/><path class="cls-2" d="M43.15,111V90.36c4.71,0,7.19-1.8,7.06-5.41a5.25,5.25,0,0,0-5.41-5c-3.62,0-5.42,2.24-5.42,6.71v51.35H15.94V89.19q0-10.25,3.3-16.73A25.77,25.77,0,0,1,29.9,61.81a31.71,31.71,0,0,1,16-4.18,27.52,27.52,0,0,1,20.07,8.06,26.9,26.9,0,0,1,8.19,20q0,11.89-7.13,18.61T46.68,111Z"/><path class="cls-3" d="M84,36.88V57.65C80.61,55,72,53.44,71.18,62.31c-1,11.29,10.57,13.5,11.19,26.78a21.92,21.92,0,0,1-8.07,18.37c-12.27,10.18-27.78,5-31.15,3.51V90.36c4.94,5,14,.86,14.34-5.94C58,72.6,45.05,74.14,45.05,52.75,45.05,32.78,69.75,27.71,84,36.88Z"/><path class="cls-1" d="M242.7,101.37H234v12.77H225V80.52h16.22c5.42,0,9.44,1.57,10.8,7a16.1,16.1,0,0,1-.31,8.44C250.35,100.15,247,101.37,242.7,101.37ZM234,88.3v5.38h6.6a2.52,2.52,0,0,0,2.14-1.05,2.86,2.86,0,0,0,.22-2.93,2.71,2.71,0,0,0-2.14-1.4Z"/><path class="cls-1" d="M277,108.06H265.39l-2.4,6.08h-9.62l13.81-33.62h8.05l13.64,33.62h-9.45Zm-8.57-7.78H274l-2.75-7.65Z"/><path class="cls-1" d="M310.2,114.14h-9.13V101.63L289.22,80.52h9.92l6.56,11.67,6.69-11.67h9.79l-12,21Z"/><path class="cls-1" d="M333.94,113.88c-7.34-1.32-10.93-6.21-10.23-13.42h8.79c0,4,.22,5.42,4.46,6.07a10.9,10.9,0,0,0,5.07-.22c1.22-.35,1.79-1.09,1.75-1.83s-.57-1.49-1.92-2.1c-2.54-1.09-8.7-3.15-12.16-4.37-3.84-1.36-5.51-4.42-5.33-8.31a8.82,8.82,0,0,1,5.24-7.61A21.69,21.69,0,0,1,343.56,81c3,.83,6,2.62,7.48,5.42a14.62,14.62,0,0,1,1.48,6.56h-9.09c-.22-2.89-.7-5-4.11-5.38a10.83,10.83,0,0,0-4.94.61c-2.49.92-.87,2.76.87,3.19,3,.79,7,2.27,9.53,3.11a14.53,14.53,0,0,1,6.74,4.41,9.59,9.59,0,0,1,1.09,8.44c-1.05,3.5-4,5.24-7.21,6.21A29.18,29.18,0,0,1,333.94,113.88Z"/><path class="cls-1" d="M375.34,114.14h-9.13V88.3H355.32V80.48h30.87V88.3H375.34Z"/><path class="cls-1" d="M411,108.06H399.43l-2.4,6.08h-9.62l13.82-33.62h8l13.64,33.62h-9.44Zm-8.57-7.78H408l-2.75-7.65Z"/><path class="cls-1" d="M444.16,114.14H435V88.3H424.14V80.48H455V88.3H444.16Z"/><path class="cls-1" d="M458.37,80.48h9.13v33.66h-9.13Z"/><path class="cls-1" d="M480.18,113.44c-6.51-2.58-9.53-9.14-9.35-15.7.17-6.16,2-12.5,8.09-15.73,4.94-2.58,12.37-2.67,17,.7C501,86.42,502.44,93.2,502,99.14c-.39,6.12-3.23,12.07-9.48,14.3A18.22,18.22,0,0,1,480.18,113.44ZM486.7,88c-2.84.09-4.42,1.62-5.42,4.07a14.09,14.09,0,0,0,.13,11.45c1.18,2.14,2.75,3.32,5.33,3.15,6.91-.44,6.65-10.58,4.9-14.86C490.72,89.53,489.28,87.91,486.7,88Z"/><path class="cls-1" d="M513.45,94v20.16h-8.7V80.52h10.49l10.67,19.72V80.52h8.7v33.62H524.12Z"/><path class="cls-4" d="M89.4,124v-7.65c1.75,0,2.63-.67,2.63-2s-.67-1.84-2-1.84-2,.83-2,2.49v19.07h-8.7V115.9a13.68,13.68,0,0,1,1.22-6.21,9.47,9.47,0,0,1,4-4,11.71,11.71,0,0,1,5.92-1.55,10.18,10.18,0,0,1,7.45,3,10,10,0,0,1,3,7.41,9,9,0,0,1-2.64,6.91Q95.6,124,90.72,124Z"/><path class="cls-4" d="M116.51,126.13v8.22a8.84,8.84,0,0,1-1.79.18,10.88,10.88,0,0,1-8-3.22,11.18,11.18,0,0,1,7.9-19,11,11,0,0,1,8.15,3c2,2,3,4.77,3,8.26v10.5h-8v-9.93a4,4,0,0,0-.83-2.69,2.72,2.72,0,0,0-2.18-1,2.94,2.94,0,0,0-2.19.94,3.13,3.13,0,0,0-.92,2.25,3,3,0,0,0,.83,2.16,2.94,2.94,0,0,0,2.19.86A3.59,3.59,0,0,0,116.51,126.13Z"/><path class="cls-4" d="M133.12,143.4v-7a7.63,7.63,0,0,0,2.93.66q3.72,0,4.94-4.38a8,8,0,0,1-4.15,1.23,6.15,6.15,0,0,1-4.81-2.17,8.19,8.19,0,0,1-1.92-5.66V112.76h8v11.45c0,1.25.52,1.88,1.57,1.88s1.49-.7,1.49-2.1V112.76h8v19q0,5.78-3.5,9.12a11.29,11.29,0,0,1-8,3.34A13,13,0,0,1,133.12,143.4Z"/></svg>