<svg xmlns="http://www.w3.org/2000/svg" width="399.99951" height="77.78076" viewBox="0 0 399.99951 77.78076"><title>資產 1</title><g id="圖層_2" data-name="圖層 2"><g id="圖層_1-2" data-name="圖層 1"><path d="M116.66748,49.77294c0,9.824-8.08,17.656-18.255,17.656-10.224,0-18.305-7.832-18.305-17.656,0-9.876,8.081-17.558,18.305-17.558,10.175,0,18.255,7.732,18.255,17.558m-32.519,0a14.22178,14.22178,0,1,0,14.264-13.766,14.0325,14.0325,0,0,0-14.264,13.766" style="fill:#0050a2"/><polygon points="148.878 67.229 127.93 39.199 127.93 67.229 123.941 67.229 123.941 32.317 128.08 32.317 149.028 60.396 149.028 32.317 152.969 32.317 152.969 67.229 148.878 67.229" style="fill:#0050a2"/><polygon points="167.574 36.155 167.574 47.628 185.181 47.628 185.181 51.469 167.574 51.469 167.574 63.438 187.924 63.438 187.924 67.229 163.584 67.229 163.584 32.317 187.275 32.317 187.275 36.155 167.574 36.155" style="fill:#0050a2"/><polygon points="224.375 67.229 217.891 43.089 211.307 67.229 202.13 67.229 190.708 32.317 200.184 32.317 207.018 58.002 213.7 32.317 222.379 32.317 229.213 58.002 235.945 32.317 245.022 32.317 233.502 67.229 224.375 67.229" style="fill:#fff"/><path d="M253.39124,60.79522l-2.543,6.434h-9.127l15.063-34.912h9.12689l14.713,34.912h-9.476l-2.495-6.434Zm7.682-19.652-5.088,12.919h10.075Z" style="fill:#fff"/><polygon points="307.548 59.797 307.548 67.229 283.858 67.229 283.858 32.318 292.735 32.318 292.735 59.797 307.548 59.797" style="fill:#fff"/><polygon points="335.473 59.797 335.473 67.229 311.783 67.229 311.783 32.318 320.66 32.318 320.66 59.797 335.473 59.797" style="fill:#fff"/><polygon points="348.585 39.298 348.585 46.232 365.244 46.232 365.244 53.213 348.585 53.213 348.585 60.246 367.588 60.246 367.588 67.229 339.707 67.229 339.707 32.317 367.039 32.317 367.039 39.298 348.585 39.298" style="fill:#fff"/><polygon points="389.477 39.449 389.477 67.229 380.599 67.229 380.599 39.449 370.175 39.449 370.175 32.265 400 32.265 400 39.449 389.477 39.449" style="fill:#fff"/><path d="M59.25439,77.78033h-48.014a11.24019,11.24019,0,0,1-11.24-11.24v-37.797a11.23956,11.23956,0,0,1,11.24-11.24h48.014a11.2396,11.2396,0,0,1,11.24,11.24v37.797a11.24023,11.24023,0,0,1-11.24,11.24" style="fill:#0050a2"/><path d="M61.21436,56.43908h9.28V37.0531h-9.28a8.763,8.763,0,0,0-8.763,8.762v1.861a8.76316,8.76316,0,0,0,8.763,8.76294" style="fill:#fff"/><path d="M65.54926,46.74566a3.6665,3.6665,0,1,1-3.66705-3.667,3.66735,3.66735,0,0,1,3.66705,3.667" style="fill:#00adee"/><path d="M0,28.74273V66.53979a11.24044,11.24044,0,0,0,11.24,11.241H29.86a36.55446,36.55446,0,0,0-6.081-60.278H11.24A11.2396,11.2396,0,0,0,0,28.74273" style="fill:#00adee"/><path d="M13.37836,77.76074v-30.365q-4.53754,2.71353-6.315,2.713a5.27421,5.27421,0,0,1-3.397-1.464,4.85907,4.85907,0,0,1-1.717-3.89,5.2116,5.2116,0,0,1,.42-2.234,4.81661,4.81661,0,0,1,1.633-1.752,23.20781,23.20781,0,0,1,3.614-1.96906q5.01746-2.35345,6.987-5.667a12.03407,12.03407,0,0,1,2.401-3.038,4.86092,4.86092,0,0,1,3.145-.9,5.22277,5.22277,0,0,1,2.246.468,4.96988,4.96988,0,0,1,1.656,1.225,5.6824,5.6824,0,0,1,1.021,1.669,10.25838,10.25838,0,0,1,.528,3.722v41.482" style="fill:#fff"/><path d="M58.21576,15.27594l-1.208-3.39294a5.34662,5.34662,0,0,0-6.83-3.24194l-18.12,6.45294Z" style="fill:#7dc142"/><path d="M46.96625,5.15289,44.24524,1.91a5.34507,5.34507,0,0,0-7.531-.65906l-16.239,13.626Z" style="fill:#7dc142"/><polygon points="20.25 15.065 20.13 15.166 20.518 15.166 20.25 15.065" style="fill:#7dc142"/></g></g></svg>